<?xml version="1.0" standalone="no"?>
<!DOCTYPE svg PUBLIC "-//W3C//DTD SVG 20010904//EN"
 "http://www.w3.org/TR/2001/REC-SVG-20010904/DTD/svg10.dtd">
<svg version="1.0" xmlns="http://www.w3.org/2000/svg"
 width="612.000000pt" height="552.000000pt" viewBox="0 0 612.000000 552.000000"
 preserveAspectRatio="xMidYMid meet">

<g transform="translate(0.000000,552.000000) scale(0.100000,-0.100000)"
fill="#000000" stroke="none">
<path d="M2866 4639 c-22 -17 -42 -19 -213 -19 l-189 0 -195 -197 -196 -198 4
-76 5 -77 -167 -166 -166 -166 -51 0 c-39 0 -57 5 -75 22 -19 18 -26 20 -48
10 -32 -15 -41 -37 -27 -68 14 -29 65 -34 80 -7 8 13 22 16 68 14 l57 -3 174
174 173 173 0 80 0 81 188 187 187 187 186 0 c154 0 189 -3 199 -15 20 -24 69
-19 81 9 23 50 -30 90 -75 55z m49 -34 c0 -28 -29 -25 -33 3 -3 19 0 23 15 20
10 -2 18 -12 18 -23z m-1308 -871 c7 -18 -17 -38 -31 -24 -11 11 -1 40 14 40
6 0 13 -7 17 -16z"/>
<path d="M3372 4606 c-59 -20 -107 -54 -140 -100 l-27 -39 -3 -1655 c-1 -1120
1 -1666 8 -1693 36 -134 221 -227 397 -199 38 6 91 22 120 35 61 28 141 99
169 150 15 28 24 35 39 30 58 -16 143 -17 205 -1 92 24 146 53 216 118 100 94
153 232 140 363 -6 60 -6 61 26 80 54 31 206 185 254 257 223 335 225 771 3
1099 -55 83 -168 200 -246 255 l-62 45 20 43 c57 130 64 318 16 454 -36 103
-81 175 -157 252 -121 121 -253 179 -426 187 l-102 6 -6 41 c-16 99 -94 204
-189 253 -63 32 -186 41 -255 19z m235 -44 c128 -66 194 -191 179 -335 -6 -56
-43 -151 -78 -199 -14 -20 -6 -33 16 -25 23 9 84 142 91 202 l7 55 67 0 c170
-1 313 -61 437 -184 92 -93 145 -187 170 -307 20 -92 13 -218 -15 -309 -32
-102 -28 -99 -118 -57 -87 40 -196 71 -290 82 -53 6 -63 5 -63 -8 0 -11 14
-18 48 -22 344 -47 614 -238 760 -538 59 -120 83 -218 89 -365 12 -254 -59
-469 -214 -658 -48 -57 -188 -183 -205 -184 -3 0 -20 29 -37 65 -29 62 -112
159 -169 195 l-23 15 58 60 c32 33 70 85 85 116 29 60 55 177 45 203 -12 31
-25 15 -32 -41 -14 -116 -71 -224 -150 -286 -45 -34 -46 -35 -89 -22 -68 21
-141 23 -141 5 0 -11 16 -17 55 -21 290 -34 456 -338 331 -604 -86 -185 -304
-279 -511 -222 -4 1 -27 -27 -51 -62 -51 -75 -116 -124 -197 -147 -77 -23
-209 -15 -279 15 -58 26 -128 94 -140 138 -4 15 -8 773 -8 1684 l0 1656 28 36
c27 35 80 70 137 88 45 15 162 4 207 -19z"/>
<path d="M3573 3408 c-41 -52 -48 -200 -14 -290 44 -114 164 -208 287 -224 35
-4 53 -11 50 -18 -38 -89 -45 -195 -15 -259 14 -30 36 -31 31 -1 -2 10 -8 44
-14 74 -20 103 34 220 130 281 26 16 63 32 83 35 49 8 67 20 53 34 -24 24
-141 -23 -209 -85 -39 -35 -42 -36 -95 -30 -109 12 -215 87 -263 185 -29 60
-36 189 -13 244 18 43 20 66 7 66 -5 0 -13 -6 -18 -12z"/>
<path d="M3682 2147 c-44 -46 -67 -116 -67 -203 l0 -81 -50 23 c-70 32 -125
41 -125 21 0 -9 13 -18 32 -22 156 -35 265 -167 276 -333 5 -85 25 -94 30 -13
4 72 -22 154 -74 231 -78 117 -81 228 -9 337 19 29 35 55 35 58 0 13 -29 3
-48 -18z"/>
<path d="M2709 4509 c-12 -23 2 -69 21 -69 6 0 10 -39 10 -103 l0 -102 -83
-83 -82 -82 -75 0 -76 0 -62 63 c-45 45 -62 70 -62 89 0 52 -72 71 -90 24 -14
-38 6 -65 50 -66 17 -1 46 -21 90 -65 l65 -65 90 0 90 0 88 88 87 87 0 103 c0
79 4 107 15 118 18 18 20 55 3 72 -20 20 -66 14 -79 -9z m61 -30 c0 -23 -28
-26 -37 -3 -6 16 15 37 29 28 4 -3 8 -14 8 -25z m-503 -240 c14 -14 6 -39 -12
-39 -18 0 -28 17 -21 35 6 18 18 19 33 4z"/>
<path d="M2886 4464 c-21 -20 -20 -53 0 -75 22 -25 21 -235 -1 -259 -32 -36
-11 -80 37 -80 36 0 56 36 39 69 -7 11 -16 21 -21 21 -6 0 -10 49 -10 118 0
105 2 119 20 135 11 9 20 24 20 32 0 19 -35 55 -54 55 -8 0 -22 -7 -30 -16z
m52 -37 c2 -12 -3 -17 -17 -17 -15 0 -21 6 -21 21 0 25 33 22 38 -4z m-1 -323
c8 -21 -13 -42 -28 -27 -13 13 -5 43 11 43 6 0 13 -7 17 -16z"/>
<path d="M2570 4445 c-7 -8 -12 -26 -12 -39 0 -34 -103 -134 -142 -138 -39 -4
-54 -29 -38 -62 23 -51 92 -27 92 31 0 24 100 123 123 123 49 0 77 56 45 88
-17 17 -53 15 -68 -3z m58 -32 c5 -17 -26 -29 -40 -15 -6 6 -7 15 -3 22 9 14
37 9 43 -7z m-191 -179 c8 -21 -13 -42 -28 -27 -13 13 -5 43 11 43 6 0 13 -7
17 -16z"/>
<path d="M1849 4279 c-12 -12 -19 -29 -16 -39 3 -12 -21 -43 -79 -101 l-84
-84 0 -58 c0 -44 -5 -65 -20 -84 -11 -14 -20 -30 -20 -34 0 -14 39 -49 54 -49
39 0 61 65 31 90 -10 8 -15 31 -15 69 l0 56 78 78 c56 55 85 77 103 77 46 0
67 51 33 84 -21 22 -40 20 -65 -5z m54 -23 c7 -18 -1 -26 -25 -26 -18 0 -25
20 -11 33 11 12 31 8 36 -7z m-195 -373 c5 -17 -26 -29 -40 -15 -6 6 -7 15 -3
22 9 14 37 9 43 -7z"/>
<path d="M2219 4089 c-11 -11 -18 -27 -15 -37 7 -21 -256 -288 -273 -278 -15
10 -49 -11 -56 -35 -13 -41 52 -78 83 -47 7 7 12 24 12 38 0 36 244 280 281
280 14 0 30 5 37 12 19 19 15 66 -7 78 -28 14 -38 13 -62 -11z m59 -26 c5 -17
-26 -29 -40 -15 -6 6 -7 15 -3 22 9 14 37 9 43 -7z m-335 -327 c8 -19 -15 -37
-32 -26 -17 10 -7 40 13 40 7 0 16 -6 19 -14z"/>
<path d="M2716 4091 c-10 -11 -16 -28 -14 -40 2 -14 -16 -39 -57 -81 l-59 -60
-85 0 -85 0 -170 -170 -171 -169 4 -145 c3 -138 2 -145 -18 -156 -32 -16 -29
-67 5 -82 28 -13 49 -5 68 25 8 12 5 23 -12 46 -20 28 -22 42 -22 163 l0 133
162 162 163 163 85 0 86 0 64 65 c41 41 73 65 86 65 48 0 74 68 35 90 -29 15
-46 12 -65 -9z m54 -31 c0 -13 -7 -20 -20 -20 -19 0 -27 20 -13 33 13 14 33 6
33 -13z m-660 -830 c0 -13 -7 -20 -20 -20 -13 0 -20 7 -20 20 0 13 7 20 20 20
13 0 20 -7 20 -20z"/>
<path d="M2882 3928 c-7 -7 -12 -24 -12 -38 0 -18 -18 -44 -65 -90 l-65 -64 0
-86 0 -85 -85 -85 -85 -84 0 -142 c0 -114 -3 -144 -15 -154 -8 -7 -15 -26 -15
-41 0 -22 6 -32 26 -39 52 -20 88 30 53 74 -17 21 -19 42 -19 161 l0 136 84
86 83 85 1 80 0 80 63 64 c36 37 70 62 77 59 36 -14 72 38 52 75 -12 23 -58
28 -78 8z m55 -24 c8 -21 -13 -42 -28 -27 -13 13 -5 43 11 43 6 0 13 -7 17
-16z m-327 -840 c0 -20 -30 -30 -40 -13 -11 17 7 40 26 32 8 -3 14 -12 14 -19z"/>
<path d="M2392 3764 c-13 -9 -22 -26 -22 -42 0 -21 -17 -44 -65 -92 l-65 -64
0 -498 0 -498 -82 -80 -83 -80 -137 0 c-88 0 -138 4 -138 10 0 6 -11 15 -24
21 -34 16 -66 -3 -66 -39 0 -52 50 -71 85 -32 16 18 31 20 159 20 l141 0 88
88 87 87 0 495 0 496 63 62 c38 37 71 62 84 62 27 0 53 25 53 50 0 16 -34 50
-50 50 -3 0 -16 -7 -28 -16z m45 -30 c7 -18 -17 -38 -31 -24 -11 11 -1 40 14
40 6 0 13 -7 17 -16z m-659 -1331 c5 -17 -26 -29 -40 -15 -6 6 -7 15 -3 22 9
14 37 9 43 -7z"/>
<path d="M2900 3773 c-32 -13 -41 -61 -15 -83 12 -10 15 -40 15 -154 l0 -141
-80 -80 -80 -80 0 -169 0 -169 65 -68 c45 -46 65 -75 65 -92 0 -30 24 -57 50
-57 19 0 50 35 50 57 0 20 -30 43 -59 43 -19 0 -42 16 -85 59 l-58 59 0 163 1
164 80 81 81 82 0 144 c0 132 2 146 20 163 11 10 20 24 20 32 0 14 -35 53 -47
52 -5 0 -15 -3 -23 -6z m37 -39 c3 -8 1 -20 -5 -26 -15 -15 -43 8 -35 28 7 19
32 18 40 -2z m3 -999 c0 -21 -30 -31 -40 -14 -11 17 -3 29 21 29 10 0 19 -7
19 -15z"/>
<path d="M1515 3586 c-19 -29 -8 -61 25 -71 21 -7 60 10 60 25 0 6 33 10 74
10 l73 0 82 -82 81 -83 0 -165 0 -166 64 -63 c46 -46 66 -73 68 -94 4 -36 26
-52 61 -43 56 14 41 89 -19 91 -16 1 -45 22 -84 60 l-60 59 0 166 0 165 -87
87 -88 87 -74 3 c-52 2 -81 8 -97 20 -31 25 -61 22 -79 -6z m63 -23 c5 -17
-26 -29 -40 -15 -6 6 -7 15 -3 22 9 14 37 9 43 -7z m527 -668 c0 -28 -29 -25
-33 3 -3 19 0 23 15 20 10 -2 18 -12 18 -23z"/>
<path d="M2552 3598 c-7 -7 -12 -24 -12 -38 0 -18 -18 -44 -65 -90 l-65 -64 0
-176 0 -175 149 -149 c107 -106 147 -153 144 -166 -5 -20 29 -60 51 -60 20 0
46 28 46 50 0 25 -27 50 -53 50 -15 0 -69 47 -170 148 l-147 147 0 155 0 154
66 67 c37 37 73 65 80 62 18 -7 51 13 57 36 11 44 -50 80 -81 49z m56 -35 c5
-17 -26 -29 -40 -15 -6 6 -7 15 -3 22 9 14 37 9 43 -7z m162 -834 c0 -25 -33
-22 -38 4 -2 12 3 17 17 17 15 0 21 -6 21 -21z"/>
<path d="M1550 3424 c-10 -11 -11 -23 -4 -42 11 -32 62 -43 84 -18 8 11 29 16
61 16 l49 0 0 -134 c0 -106 -3 -136 -15 -146 -36 -30 5 -101 49 -84 36 14 42
67 9 87 -10 6 -13 44 -13 157 l0 150 -64 0 c-44 0 -67 5 -76 15 -16 20 -64 19
-80 -1z m57 -20 c8 -21 -13 -42 -28 -27 -13 13 -5 43 11 43 6 0 13 -7 17 -16z
m163 -329 c13 -16 6 -35 -15 -35 -18 0 -26 15 -19 34 8 20 18 20 34 1z"/>
<path d="M1556 3264 c-22 -21 -20 -51 4 -71 16 -14 20 -30 20 -78 l0 -60 149
-149 c107 -106 147 -153 144 -166 -5 -20 29 -60 51 -60 22 0 46 29 46 54 0 29
-18 46 -50 46 -19 0 -59 34 -173 148 l-147 147 0 50 c0 38 5 55 20 68 35 30
16 87 -30 87 -10 0 -26 -7 -34 -16z m54 -34 c0 -13 -7 -20 -20 -20 -13 0 -20
7 -20 20 0 13 7 20 20 20 13 0 20 -7 20 -20z m333 -495 c4 -8 2 -17 -4 -21
-15 -9 -39 3 -39 21 0 19 36 20 43 0z"/>
<path d="M1387 3209 c-8 -11 -13 -28 -10 -37 2 -11 -27 -47 -87 -107 l-90 -90
0 -225 0 -226 70 -69 c43 -42 68 -75 65 -84 -8 -22 23 -61 48 -61 31 0 47 18
47 52 0 29 -31 54 -55 44 -8 -3 -41 23 -79 61 l-66 66 0 216 0 216 83 83 c45
45 90 82 100 82 49 0 77 56 45 88 -19 19 -55 14 -71 -9z m61 -26 c5 -17 -26
-29 -40 -15 -6 6 -7 15 -3 22 9 14 37 9 43 -7z m-45 -817 c8 -19 -15 -37 -32
-26 -17 10 -7 40 13 40 7 0 16 -6 19 -14z"/>
<path d="M1382 3018 c-32 -32 -4 -88 45 -88 10 0 100 -82 208 -190 l190 -190
106 0 c83 0 109 -3 119 -15 20 -24 69 -19 81 9 23 50 -30 90 -75 55 -20 -16
-41 -19 -123 -19 l-98 0 -189 189 c-126 126 -187 194 -183 204 14 38 -51 75
-81 45z m56 -35 c5 -17 -26 -29 -40 -15 -6 6 -7 15 -3 22 9 14 37 9 43 -7z
m669 -409 c9 -23 -13 -40 -32 -24 -12 10 -13 16 -4 26 15 18 28 18 36 -2z"/>
<path d="M2386 2844 c-22 -21 -20 -47 4 -69 19 -17 20 -31 20 -194 l0 -176
-78 -78 -77 -77 -85 0 -85 0 -170 -170 c-137 -137 -175 -170 -197 -170 -49 0
-64 -59 -23 -86 23 -15 27 -15 50 0 17 11 25 26 25 44 0 21 32 59 162 189
l163 163 83 0 83 0 84 87 85 87 0 181 c0 169 1 183 20 200 11 10 20 26 20 36
0 23 -26 49 -50 49 -10 0 -26 -7 -34 -16z m54 -34 c0 -13 -7 -20 -20 -20 -13
0 -20 7 -20 20 0 13 7 20 20 20 13 0 20 -7 20 -20z m-703 -936 c8 -21 -13 -42
-28 -27 -13 13 -5 43 11 43 6 0 13 -7 17 -16z"/>
<path d="M1320 2770 c-11 -11 -20 -26 -20 -33 0 -21 34 -47 61 -47 18 0 52
-27 122 -98 l97 -97 0 -135 0 -136 65 -64 c47 -46 65 -72 65 -90 0 -31 17 -50
45 -50 27 0 41 11 49 37 9 27 -27 68 -52 58 -11 -4 -37 15 -84 62 l-68 67 0
133 0 132 -100 101 c-71 71 -100 107 -100 124 0 27 -24 56 -46 56 -8 0 -23 -9
-34 -20z m55 -30 c0 -8 -10 -16 -22 -18 -22 -3 -32 16 -16 32 12 11 38 2 38
-14z m403 -673 c2 -11 -3 -17 -17 -17 -23 0 -35 15 -26 31 10 15 39 6 43 -14z"/>
<path d="M2552 2768 c-17 -17 -15 -67 3 -74 12 -5 15 -31 15 -147 l0 -142
-247 -247 -247 -247 2 -165 2 -164 -71 -96 c-56 -76 -76 -96 -95 -96 -31 0
-51 -38 -35 -67 25 -47 95 -26 89 27 -2 22 13 50 65 121 l67 91 0 167 0 166
250 250 250 250 0 142 c0 129 2 145 20 163 19 19 18 40 -3 68 -12 15 -49 16
-65 0z m56 -35 c5 -17 -26 -29 -40 -15 -6 6 -7 15 -3 22 9 14 37 9 43 -7z
m-671 -1374 c14 -14 6 -39 -12 -39 -18 0 -28 17 -21 35 6 18 18 19 33 4z"/>
<path d="M2882 2598 c-7 -7 -12 -24 -12 -38 0 -35 -76 -110 -111 -110 -28 0
-59 -27 -59 -52 0 -19 32 -48 53 -48 22 0 47 28 47 54 0 32 88 116 123 116 35
0 55 37 38 69 -13 23 -59 29 -79 9z m55 -24 c8 -21 -13 -42 -28 -27 -13 13 -5
43 11 43 6 0 13 -7 17 -16z m-167 -174 c0 -13 -7 -20 -20 -20 -13 0 -20 7 -20
20 0 13 7 20 20 20 13 0 20 -7 20 -20z"/>
<path d="M2882 2428 c-7 -7 -12 -22 -12 -34 0 -26 -253 -280 -275 -276 -28 5
-55 -18 -55 -46 0 -34 16 -52 47 -52 25 0 56 39 48 61 -6 17 245 272 266 269
51 -8 82 28 60 69 -13 23 -59 29 -79 9z m55 -24 c9 -23 -13 -40 -32 -24 -12
10 -13 16 -4 26 15 18 28 18 36 -2z m-329 -337 c2 -11 -3 -17 -17 -17 -23 0
-35 15 -26 31 10 15 39 6 43 -14z"/>
<path d="M1153 2360 c-16 -7 -23 -18 -23 -38 0 -35 16 -52 50 -52 18 0 43 -18
88 -63 l62 -63 0 -85 0 -85 65 -64 c47 -46 65 -72 65 -90 0 -14 5 -31 12 -38
35 -35 102 14 79 57 -12 21 -45 36 -60 27 -4 -3 -39 26 -76 64 l-67 70 5 77 5
76 -69 71 c-46 47 -69 79 -69 95 0 13 -8 30 -17 37 -21 16 -21 16 -50 4z m44
-36 c7 -20 -17 -37 -34 -23 -15 13 -6 39 13 39 8 0 17 -7 21 -16z m331 -507
c2 -12 -3 -17 -17 -17 -15 0 -21 6 -21 21 0 25 33 22 38 -4z"/>
<path d="M2552 2268 c-7 -7 -12 -24 -12 -38 0 -18 -18 -44 -65 -90 l-65 -64 0
-61 c0 -48 -4 -64 -20 -78 -25 -21 -26 -49 -2 -70 24 -22 45 -21 65 1 23 25
21 48 -3 69 -15 13 -20 30 -20 67 0 49 2 53 66 117 37 37 73 65 80 62 18 -7
51 13 57 36 11 44 -50 80 -81 49z m58 -33 c0 -9 -7 -18 -16 -22 -18 -7 -39 11
-30 26 11 17 46 13 46 -4z m-170 -335 c0 -13 -7 -20 -20 -20 -13 0 -20 7 -20
20 0 13 7 20 20 20 13 0 20 -7 20 -20z"/>
<path d="M2892 2234 c-25 -17 -29 -56 -7 -74 13 -10 15 -54 15 -280 0 -229 -2
-269 -15 -274 -18 -7 -20 -57 -3 -74 20 -20 56 -14 74 14 16 24 16 26 -5 54
-20 28 -21 39 -21 287 0 246 1 259 20 276 11 9 20 24 20 32 0 16 -34 55 -48
55 -4 0 -18 -7 -30 -16z m45 -30 c7 -18 -17 -38 -31 -24 -11 11 -1 40 14 40 6
0 13 -7 17 -16z m1 -637 c2 -12 -3 -17 -17 -17 -15 0 -21 6 -21 21 0 25 33 22
38 -4z"/>
<path d="M2720 2100 c-11 -11 -20 -27 -20 -35 0 -8 9 -23 20 -32 16 -14 20
-30 20 -73 l0 -55 -78 -78 -77 -77 -141 0 c-114 0 -144 3 -154 15 -18 22 -67
19 -80 -4 -17 -33 4 -71 39 -71 15 0 34 7 41 15 10 12 41 15 156 15 l144 0 91
91 90 92 -2 53 c-2 39 2 59 14 72 23 26 21 58 -5 76 -29 20 -34 20 -58 -4z
m50 -29 c0 -11 -4 -22 -8 -25 -14 -9 -35 12 -29 28 9 23 37 20 37 -3z m-496
-320 c9 -14 -4 -41 -19 -41 -18 0 -28 17 -21 35 6 17 32 20 40 6z"/>
<path d="M1832 1878 c-17 -17 -15 -67 3 -74 12 -5 15 -28 15 -124 0 -92 -3
-120 -15 -130 -24 -20 -19 -69 9 -81 50 -23 90 30 55 75 -16 21 -19 41 -19
139 0 93 3 116 15 121 18 7 20 57 3 74 -7 7 -21 12 -33 12 -12 0 -26 -5 -33
-12z m54 -47 c-9 -14 -33 -14 -41 -1 -4 6 -1 18 6 26 11 13 14 13 27 0 8 -8
11 -19 8 -25z m2 -318 c5 -17 -26 -29 -40 -15 -6 6 -7 15 -3 22 9 14 37 9 43
-7z"/>
<path d="M2725 1776 c-11 -8 -20 -26 -20 -40 -1 -19 -21 -47 -65 -92 l-64 -64
-81 0 -81 0 -64 -65 c-48 -48 -71 -65 -92 -65 -53 0 -71 -70 -23 -92 33 -15
65 5 65 41 0 21 16 45 65 94 l64 67 83 0 84 0 64 65 c46 47 72 65 90 65 51 0
69 56 28 84 -27 19 -29 19 -53 2z m42 -32 c8 -21 -13 -42 -28 -27 -13 13 -5
43 11 43 6 0 13 -7 17 -16z m-491 -353 c-10 -16 -36 -13 -43 5 -8 22 18 37 36
20 7 -8 10 -19 7 -25z"/>
<path d="M1598 1735 c-10 -22 -8 -30 10 -55 20 -27 22 -41 22 -167 l0 -138 88
-88 87 -87 141 0 c114 0 144 -3 154 -15 7 -8 25 -15 41 -15 37 0 57 36 40 69
-14 25 -62 29 -81 6 -10 -12 -40 -15 -149 -15 l-136 0 -82 82 -83 81 0 132 c0
119 2 134 20 150 39 35 20 85 -32 85 -21 0 -32 -7 -40 -25z m59 -11 c8 -21
-13 -42 -28 -27 -13 13 -5 43 11 43 6 0 13 -7 17 -16z m500 -500 c8 -21 -13
-42 -28 -27 -13 13 -5 43 11 43 6 0 13 -7 17 -16z"/>
<path d="M2716 1601 c-19 -21 -15 -51 9 -71 12 -10 15 -49 15 -208 0 -189 -1
-197 -22 -219 -21 -22 -21 -26 -7 -51 18 -33 44 -39 70 -16 23 20 25 57 4 74
-12 10 -15 47 -15 210 0 163 3 200 15 210 32 26 8 90 -34 90 -10 0 -26 -9 -35
-19z m54 -31 c0 -13 -7 -20 -20 -20 -19 0 -27 20 -13 33 13 14 33 6 33 -13z
m0 -501 c0 -14 -5 -19 -17 -17 -26 5 -29 38 -4 38 15 0 21 -6 21 -21z"/>
<path d="M2564 1440 c-30 -12 -36 -45 -13 -74 13 -17 19 -40 19 -77 l0 -53
-81 -78 c-78 -75 -84 -78 -129 -78 -34 0 -52 5 -65 20 -25 27 -61 25 -80 -4
-19 -29 -8 -61 25 -71 21 -7 60 10 60 25 0 6 28 10 62 10 l63 0 87 87 88 88 0
56 c0 39 5 61 16 69 21 19 14 71 -11 80 -11 4 -30 4 -41 0z m42 -31 c3 -6 0
-17 -7 -25 -18 -17 -44 -2 -36 20 7 18 33 21 43 5z m-328 -336 c5 -17 -26 -29
-40 -15 -6 6 -7 15 -3 22 9 14 37 9 43 -7z"/>
<path d="M2882 1438 c-17 -17 -15 -53 3 -68 12 -10 15 -40 15 -154 l0 -141
-78 -78 -77 -77 -136 0 c-109 0 -139 3 -149 15 -15 18 -61 20 -78 3 -7 -7 -12
-21 -12 -33 0 -12 5 -26 12 -33 17 -17 63 -15 78 3 10 12 40 15 154 15 l141 0
87 87 88 88 0 142 c0 130 2 145 20 163 24 24 25 43 4 64 -18 19 -55 21 -72 4z
m58 -33 c0 -21 -19 -28 -36 -15 -10 9 -11 16 -3 26 12 15 39 8 39 -11z m-503
-491 c8 -21 -13 -42 -28 -27 -13 13 -5 43 11 43 6 0 13 -7 17 -16z"/>
</g>
</svg>
